<?xml version="1.0" encoding="UTF-8"?>
<svg id="logosandtypes_com" data-name="logosandtypes com" xmlns="http://www.w3.org/2000/svg" viewBox="0 0 150 150">
  <defs>
    <style>
      .cls-1 {
        fill: #cc4c33;
      }

      .cls-2 {
        fill: #ff7a57;
      }

      .cls-3 {
        fill: none;
      }
    </style>
  </defs>
  <path class="cls-3" d="M0,0H150V150H0V0Z"/>
  <g>
    <path class="cls-1" d="M120.31,75.86c-1.74,0-3.14,1.39-4.53,2.44l-16.04,19.53c9.41,11.51,19.53,21.97,25.8,21.97l-2.09-38.01c0-3.14-1.39-5.93-3.14-5.93Z"/>
    <path class="cls-1" d="M29.65,75.86c-1.74,0-3.14,2.44-3.14,5.93l-2.09,38.35c6.28,0,16.74-10.46,26.15-21.97l-16.39-20.22c-1.74-1.05-2.79-2.09-4.53-2.09Z"/>
  </g>
  <path class="cls-2" d="M146.11,51.1c0-7.67-2.79-18.48-12.9-18.48-16.05,1.6-44.52,39.01-55.79,52.3-1.84,2.72-3.75,2.71-5.58,0,0,0-2.44-3.14-6.28-7.67-4.53-5.58-10.81-13.25-17.78-20.57-10.81-12.55-23.36-24.06-31.03-24.41-10.11,0-12.9,11.16-12.9,18.83L1.76,120.14H24.42l2.09-38.01c.03-6.45,3.92-7.56,7.32-3.49,7.49,9.09,22.6,27.53,29.99,36.61,2.5,3.23,6.53,4.98,10.81,4.88h.7c4.3,.1,7.95-1.65,10.81-4.88,7.38-9.06,22.52-27.54,29.99-36.61,3.41-4.08,7.29-2.96,7.32,3.49l2.09,38.01h22.66l-2.09-69.04Z"/>
  <path class="cls-1" d="M72.19,67.84c1.39-2.74,4.2-2.73,5.58,0,0,0,2.79,3.84,6.28,9.41,4.53-5.58,10.46-13.25,17.43-20.57l-15.34-18.83c-2.88-3.59-6.82-5.32-10.81-5.23h-.7c-4.3-.1-7.95,1.65-10.81,4.88l-16.04,19.53c6.97,7.32,13.6,14.99,17.78,20.57,3.84-5.58,6.62-9.76,6.62-9.76Z"/>
</svg>